<svg xmlns="http://www.w3.org/2000/svg" xmlns:xlink="http://www.w3.org/1999/xlink" viewBox="0 0 440.67 342.24"><defs><style>.cls-1,.cls-25,.cls-26,.cls-32{fill:none;}.cls-2{mix-blend-mode:screen;}.cls-3{fill:#1c3f47;}.cls-4{isolation:isolate;}.cls-5{fill:#f2efe9;}.cls-6{fill:#81a4ff;}.cls-7{fill:#2a519e;}.cls-8{fill:#56548c;}.cls-9{fill:#5b8bf4;}.cls-10{fill:#3458b2;}.cls-11{fill:#ffd776;}.cls-12,.cls-15,.cls-30{fill:#ffc331;}.cls-13,.cls-27{fill:#fff;}.cls-14,.cls-33{fill:#f9f8f7;}.cls-15,.cls-29{opacity:0.5;}.cls-15,.cls-29,.cls-30,.cls-31{mix-blend-mode:multiply;}.cls-16{fill:#e05a00;}.cls-17{fill:#e9e5d9;}.cls-18{fill:#6c94ef;}.cls-19{fill:#f9fbfc;}.cls-20{fill:#dce8ef;}.cls-21{fill:#7fc2dd;}.cls-22{fill:#82e3f9;}.cls-23{fill:url(#New_Pattern);}.cls-24{fill:url(#New_Pattern-3);}.cls-25{stroke:#6c94ef;}.cls-25,.cls-32{stroke-miterlimit:10;}.cls-26{stroke:#fff;stroke-linejoin:round;stroke-width:0.5px;}.cls-27{font-size:13.92px;font-family:Poppins-Medium, Poppins Medium;letter-spacing:0.1em;}.cls-28{fill:#e89f0f;}.cls-32{stroke:#81a4ff;stroke-width:3px;}.cls-33{font-size:23.99px;font-family:Poppins-SemiBold, Poppins SemiBold;font-weight:700;}.cls-34{letter-spacing:-0.03em;}.cls-35{fill:#112b46;}</style><pattern id="New_Pattern" data-name="New Pattern" width="18.96" height="18.96" patternTransform="translate(-133.19 -82.26) scale(5.15)" patternUnits="userSpaceOnUse" viewBox="0 0 18.96 18.96"><rect class="cls-1" width="18.96" height="18.96"/><g class="cls-2"><path class="cls-3" d="M15.8,0,0,15.8V14.22L14.22,0ZM9.48,0,0,9.48V4.74L4.74,0ZM19,9.48,9.48,19H4.74L19,4.74Zm0,4.74V15.8L15.8,19H14.22Z"/></g></pattern><pattern id="New_Pattern-3" data-name="New Pattern" width="18.96" height="18.96" patternTransform="translate(-222.29 -72.09) scale(5.15)" patternUnits="userSpaceOnUse" viewBox="0 0 18.96 18.96"><rect class="cls-1" width="18.96" height="18.96"/><g class="cls-2"><path class="cls-3" d="M15.8,0,0,15.8V14.22L14.22,0ZM9.48,0,0,9.48V4.74L4.74,0ZM19,9.48,9.48,19H4.74L19,4.74Zm0,4.74V15.8L15.8,19H14.22Z"/></g></pattern></defs><title>Asset 1</title><g class="cls-4"><g id="Layer_2" data-name="Layer 2"><g id="OBJECTS"><path class="cls-5" d="M409.39,186q-2,21.35-5.09,42.57c-3,20.73-7.88,40-6.11,60.91.9,7.81,2,16.33,2.36,24.79.06,1.55.1,3.11.12,4.65H47.74A59.24,59.24,0,0,1,44,314.23C29.9,295,29.1,271.88,35.07,249.68c6.79-25.28,14-51,39.74-62.57,10.69-4.79,22.25-7.84,32.13-14.15,23.17-14.8,25.84-43.12,34.75-66.75,4.9-13,11.74-25.66,22.35-34.64,52.54-44.49,101.35,34.21,155.08,30.64,20.7-1.38,43.25-18.67,63.53-8,27,14.25,30.39,45,28.39,72.16Q410.32,176.2,409.39,186Z"/><path class="cls-6" d="M339.46,200.62a25.16,25.16,0,0,0-1.8,5,35.66,35.66,0,0,0-.86,5.18c-.09,1.09.15,2.69-.47,3.68.85.69,1.91,1.3,2.85,1.95-1.44,0-2.05-.3-2.26,1.24-.37,3-.28,5.94-.59,8.9a20.09,20.09,0,0,1-.61,4.16c-.35,1-1.3,2.23-1.14,3.39.2,1.4,4.33,2.1,5.36,2.71-1.3.4-3.64.83-4.92.19a6.85,6.85,0,0,0,2.15,2c-1.09-.16-2.18-.52-3.18-.65-.28.91-.89,1.78-1.24,2.7-.45,1.2-1,2.29-1.45,3.46-.64,1.64-2.77,5-2.11,6.76s4.45,4.54,6.18,4.61a9.28,9.28,0,0,1-7.31-2.23A25.58,25.58,0,0,0,325.32,264a7.29,7.29,0,0,0,4.6,7.59,6.72,6.72,0,0,0,4.91-.3c.34-.58.61-1.16.91-1.76a71.15,71.15,0,0,0,3.84-9,88.65,88.65,0,0,0,4.07-19c1.42-13-1.62-25.51-2.62-38.36,0-.1.14-.11.14,0,.72,7.06,2.22,14,3.19,21a77.72,77.72,0,0,1,.29,18.73A90,90,0,0,1,340.34,262a79.19,79.19,0,0,1-4.54,11.78,8.31,8.31,0,0,0,6.77,4.45c3.59.29,6.32-2,8-5,.79-1.35,1.44-2.91,2.1-4.28s.57-2.95,1.51-4c-1-.81-2.19-1.28-3.22-2a11.26,11.26,0,0,1,3.76-.17c.11-1.11,1-3.36.75-4.39s-2.5-1.77-3.43-2.18a9.21,9.21,0,0,1,3.25-.46c1.58-2.46,1.75-6.5,2-9.31.16-2.14,0-4.37.2-6.49-1.54-.11-3.11-.44-4.72-.5a20,20,0,0,1-5.92-.66c1.36-.29,2.76-.53,4.14-.69,2.13-.24,4-1.24,6.12-1.47a23.32,23.32,0,0,1,0-2.78c0-.94-.61-8.86-1.41-8.74-1.77.24-3.69,0-5.52.31,1-.63,2.21-1.53,3.19-2.1-1,.13-2.54-.15-3.38-.12.84-.59,3.11-2.28,4.06-1.85a13.21,13.21,0,0,1-2-4.5,18.34,18.34,0,0,0-2-4.13c-.57-.92-1.35-1.77-1.8-2.67-.79.42-2.42-.28-3.31-.28a9,9,0,0,1,2.22-2c-2-3.68-4.76-6.6-5-11.07C342.16,197.32,339.82,199.9,339.46,200.62Z"/><path class="cls-7" d="M341,203.09c1,12.85,4,25.38,2.62,38.36a88.65,88.65,0,0,1-4.07,19,71.15,71.15,0,0,1-3.84,9c-.3.6-.57,1.18-.91,1.76a2,2,0,0,0,.5-.21,5,5,0,0,0,.47,2.66A79.19,79.19,0,0,0,340.34,262a90,90,0,0,0,4.31-19.11,77.72,77.72,0,0,0-.29-18.73c-1-7-2.47-14-3.19-21C341.17,203,341,203,341,203.09Z"/><path class="cls-8" d="M315.19,301.7c-.76.84,1.88,2.75,2.67,2,1.55-1.53,16.87-28,17.94-29.94a5,5,0,0,1-.47-2.66,2,2,0,0,1-.5.21C333.68,273.65,316.92,299.73,315.19,301.7Z"/><path class="cls-6" d="M389.32,288.05a19.22,19.22,0,0,1-3.2,2.42,27.19,27.19,0,0,1-3.59,1.77c-.77.31-2,.49-2.57,1.17-.7-.46-1.37-1.11-2.06-1.64.36,1,.67,1.42-.4,1.92-2.07.93-4.26,1.53-6.35,2.41a15.29,15.29,0,0,0-2.89,1.37c-.67.48-1.34,1.45-2.21,1.59-1.07.16-2.5-2.69-3.17-3.31,0,1,.2,2.85.95,3.63a5.2,5.2,0,0,1-1.91-1.12c.35.75.86,1.47,1.18,2.17-.61.4-1.1,1-1.7,1.5-.77.6-1.44,1.22-2.19,1.83-1.06.83-3,3.14-4.46,3s-4.29-2.23-4.73-3.47a7.13,7.13,0,0,0,3.25,4.83,19.8,19.8,0,0,1-6.94,4.3,5.57,5.57,0,0,1-6.55-1.66,5.14,5.14,0,0,1-.89-3.65c.35-.37.72-.69,1.09-1a53.82,53.82,0,0,1,5.72-4.8,67.06,67.06,0,0,1,13-7.21c9.13-3.92,18.93-4.49,28.52-6.63.07,0,.05-.13,0-.1-5.3,1-10.68,1.49-16,2.36a59.1,59.1,0,0,0-13.71,3.95,69.32,69.32,0,0,0-13,7.4A60.42,60.42,0,0,0,336.9,307a6.33,6.33,0,0,1-4.75-3.94c-1-2.56.06-5.05,1.84-7,.81-.87,1.8-1.69,2.65-2.47s2-1.08,2.56-2c.8.53,1.42,1.31,2.17,1.9a8.29,8.29,0,0,0-.72-2.77c.79-.33,2.22-1.5,3-1.53s1.85,1.43,2.36,2a7.18,7.18,0,0,0-.39-2.47c1.44-1.69,4.34-2.72,6.34-3.51,1.52-.59,3.19-.93,4.68-1.58.42,1.09,1,2.16,1.41,3.32a15.79,15.79,0,0,0,1.81,4.17c-.1-1.06-.23-2.13-.43-3.17-.29-1.6,0-3.22-.28-4.79a18.83,18.83,0,0,0,2-.64c.69-.19,6.59-1.53,6.68-.92.21,1.34.81,2.69,1,4.09.24-.86.62-1.95.82-2.79.13.75.67,1.81.84,2.43.24-.74,1-2.78.44-3.37a9.86,9.86,0,0,0,3.74.48,14.6,14.6,0,0,1,3.45.55c.79.21,1.59.59,2.35.71-.13.68.74,1.71.93,2.36a6.68,6.68,0,0,0,.94-2.06c3.12.64,5.87,2,9.17,1.19C391.13,285.35,389.77,287.63,389.32,288.05Z"/><path class="cls-8" d="M387.18,287.46c-9.59,2.14-19.39,2.71-28.52,6.63a67.06,67.06,0,0,0-13,7.21,53.82,53.82,0,0,0-5.72,4.8c-.37.36-.74.68-1.09,1a3.05,3.05,0,0,1,.05-.41,3.83,3.83,0,0,1-2,.26,60.42,60.42,0,0,1,7.56-5.93,69.32,69.32,0,0,1,13-7.4,59.1,59.1,0,0,1,13.71-3.95c5.34-.87,10.72-1.32,16-2.36C387.23,287.33,387.25,287.44,387.18,287.46Z"/><path class="cls-7" d="M321.37,328.16c-.44.74-2.62-.9-2.22-1.65.77-1.46,16.56-18.3,17.75-19.51a3.83,3.83,0,0,0,2-.26,3.05,3.05,0,0,0-.05.41C337.43,308.52,322.42,326.46,321.37,328.16Z"/><path class="cls-9" d="M363.73,241.83a17.08,17.08,0,0,0-2.38,2.65,23.54,23.54,0,0,0-1.86,3c-.34.66-.59,1.73-1.23,2.19.35.65.87,1.3,1.29,1.95-.9-.4-1.21-.71-1.74.21-1,1.75-1.68,3.65-2.63,5.43a13.35,13.35,0,0,1-1.44,2.45c-.48.56-1.39,1.07-1.58,1.84-.23.93,2.19,2.42,2.68,3.07a5.53,5.53,0,0,1-3.14-1.13,4.54,4.54,0,0,0,.84,1.78c-.64-.37-1.23-.87-1.83-1.21-.4.5-1,.89-1.46,1.38s-1.19,1.18-1.79,1.8c-.82.87-3,2.46-3,3.71a7,7,0,0,0,2.71,4.46,6.31,6.31,0,0,1-4-3.26,17.48,17.48,0,0,0-4.35,5.82,4.94,4.94,0,0,0,.95,5.93,4.6,4.6,0,0,0,3.16,1.07c.36-.28.68-.58,1-.88a47.39,47.39,0,0,0,4.71-4.69,60.2,60.2,0,0,0,7.4-10.91c4.19-7.79,5.47-16.43,8.11-24.75,0-.06.12,0,.09,0-1.34,4.62-2.16,9.34-3.35,14a52.51,52.51,0,0,1-4.58,11.83,61.17,61.17,0,0,1-7.57,10.9,52.74,52.74,0,0,1-5.84,6.24A5.6,5.6,0,0,0,346,291.3c2.19,1.1,4.48.35,6.31-1.08.83-.65,1.64-1.46,2.4-2.15s1.11-1.71,2-2.11c-.4-.76-1.05-1.36-1.51-2.07a7.34,7.34,0,0,1,2.4.85c.35-.68,1.5-1.85,1.59-2.57s-1.12-1.75-1.6-2.24a6.19,6.19,0,0,1,2.16.54c1.61-1.15,2.75-3.63,3.61-5.35.64-1.3,1.08-2.75,1.77-4-.94-.46-1.84-1.06-2.84-1.51a14.19,14.19,0,0,1-3.55-1.92,28,28,0,0,1,2.78.62c1.4.39,2.85.25,4.22.63a14,14,0,0,1,.73-1.73c.21-.6,1.87-5.72,1.33-5.85-1.16-.29-2.32-.93-3.54-1.21.78-.14,1.78-.4,2.54-.5-.66-.18-1.56-.74-2.09-.94.67-.16,2.53-.64,3-.13a8.72,8.72,0,0,1-.13-3.34,13,13,0,0,0-.22-3.1c-.12-.72-.4-1.46-.45-2.14-.6.06-1.45-.79-2-1a6,6,0,0,1,1.89-.67c-.31-2.82-1.3-5.36-.32-8.22C366.27,240.45,364.14,241.47,363.73,241.83Z"/><path class="cls-10" d="M364.09,243.78c-2.64,8.32-3.92,17-8.11,24.75a60.2,60.2,0,0,1-7.4,10.91,47.39,47.39,0,0,1-4.71,4.69c-.34.3-.66.6-1,.88a2.32,2.32,0,0,0,.37,0,3.4,3.4,0,0,0-.38,1.79,52.74,52.74,0,0,0,5.84-6.24,61.17,61.17,0,0,0,7.57-10.9,52.51,52.51,0,0,0,4.58-11.83c1.19-4.67,2-9.39,3.35-14C364.21,243.75,364.12,243.72,364.09,243.78Z"/><path class="cls-10" d="M322.87,298.88c-.69.34.58,2.39,1.28,2.1,1.36-.56,17.52-13.23,18.69-14.19a3.4,3.4,0,0,1,.38-1.79,2.32,2.32,0,0,1-.37,0C341.53,286.2,324.45,298.09,322.87,298.88Z"/><path class="cls-11" d="M341,267.69s12.14,2.86,20.21-1.24C361.18,266.45,349.44,263.76,341,267.69Z"/><path class="cls-11" d="M341,267.69s3.32-9.77-.94-17C340,250.66,337.32,259.46,341,267.69Z"/><path class="cls-11" d="M345.13,263.21s10.07,1.15,17.77-2.63C362.9,260.58,353.63,258.47,345.13,263.21Z"/><path class="cls-11" d="M345.13,263.21a23.93,23.93,0,0,0-1-17.07S342.74,255.83,345.13,263.21Z"/><path class="cls-11" d="M349.13,258.42s10,1.33,16.47-3.09A27.72,27.72,0,0,0,349.13,258.42Z"/><path class="cls-11" d="M349.13,258.42s-3.44-10-2.53-17.61C346.6,240.81,352.61,250.22,349.13,258.42Z"/><path class="cls-11" d="M352.74,253.58s10.92-1,18-5.26C370.78,248.32,360.74,247.85,352.74,253.58Z"/><path class="cls-11" d="M352.74,253.58a27,27,0,0,0-2.3-17.61S350.23,247.6,352.74,253.58Z"/><path class="cls-11" d="M356,248.65s9.12-.12,14.64-4.93C370.65,243.72,362.47,243.63,356,248.65Z"/><path class="cls-11" d="M356,248.65a40.57,40.57,0,0,1-3.55-16.46S356.85,240.31,356,248.65Z"/><path class="cls-11" d="M359.07,243.43s11-1,16.05-6.53C375.12,236.9,365.75,238.31,359.07,243.43Z"/><path class="cls-11" d="M359.07,243.43a47.53,47.53,0,0,1-4.94-13.65A20.83,20.83,0,0,1,359.07,243.43Z"/><path class="cls-11" d="M361.39,238.87s8.07-.58,13.44-5.7A20.31,20.31,0,0,0,361.39,238.87Z"/><path class="cls-11" d="M361.39,238.87a68.81,68.81,0,0,1-6.51-14.49S361.69,232.42,361.39,238.87Z"/><path class="cls-11" d="M363.1,235s9.06-2.11,11.66-7.11A27.26,27.26,0,0,0,363.1,235Z"/><path class="cls-11" d="M363.1,235a32,32,0,0,1-5.68-11.83A16.35,16.35,0,0,1,363.1,235Z"/><path class="cls-11" d="M363.88,232.93s5.29-3.94,3.95-12.6C367.83,220.33,363.86,224.89,363.88,232.93Z"/><path class="cls-11" d="M335,273.54a109.23,109.23,0,0,0,17.09-18.46,97.56,97.56,0,0,0,6.75-10.65l.76-1.38.71-1.41.7-1.41.66-1.44a60.36,60.36,0,0,0,2.33-5.85c.2-.62,0-.71-.26-.09-.72,2-1.59,3.87-2.5,5.75l-.69,1.4-.73,1.39c-.25.46-.49.93-.74,1.38l-.78,1.37a116.41,116.41,0,0,1-6.81,10.51,130.87,130.87,0,0,1-16.68,18.68C334.32,273.81,334.52,274,335,273.54Z"/><path class="cls-11" d="M338.06,287.32s5.84,4.08,11,3.6C349,290.92,343.38,287,338.06,287.32Z"/><path class="cls-11" d="M338.06,287.32s3.82-4.48,3.09-9.22A15.39,15.39,0,0,0,338.06,287.32Z"/><path class="cls-11" d="M341.21,285.82s5.1,2.73,10,2.35A15.75,15.75,0,0,0,341.21,285.82Z"/><path class="cls-11" d="M341.21,285.82a13.62,13.62,0,0,0,3.05-9.26S341.5,281.41,341.21,285.82Z"/><path class="cls-11" d="M344.34,284.13s5,2.81,9.38,1.83A15.79,15.79,0,0,0,344.34,284.13Z"/><path class="cls-11" d="M344.34,284.13s.28-6,2.37-9.87C346.71,274.26,347.91,280.51,344.34,284.13Z"/><path class="cls-11" d="M347.27,282.32s6,1.75,10.68,1A18.22,18.22,0,0,0,347.27,282.32Z"/><path class="cls-11" d="M347.27,282.32a15.44,15.44,0,0,0,2.5-9.82S347.2,278.62,347.27,282.32Z"/><path class="cls-11" d="M350.05,280.4s4.86,1.86,8.8.47A14.86,14.86,0,0,0,350.05,280.4Z"/><path class="cls-11" d="M350.05,280.4a23.24,23.24,0,0,1,1.58-9.48A18.64,18.64,0,0,1,350.05,280.4Z"/><path class="cls-11" d="M352.77,278.28s6,1.8,9.88-.08A22.72,22.72,0,0,0,352.77,278.28Z"/><path class="cls-11" d="M352.77,278.28A27.15,27.15,0,0,1,353,270,11.88,11.88,0,0,1,352.77,278.28Z"/><path class="cls-11" d="M355,276.35a13.91,13.91,0,0,0,8.33-.19A11.57,11.57,0,0,0,355,276.35Z"/><path class="cls-11" d="M355,276.35a39.38,39.38,0,0,1-.4-9.06S356.48,273,355,276.35Z"/><path class="cls-11" d="M356.68,274.65s5.25.79,7.68-1.31A15.6,15.6,0,0,0,356.68,274.65Z"/><path class="cls-11" d="M356.68,274.65a18.32,18.32,0,0,1-.51-7.47A9.32,9.32,0,0,1,356.68,274.65Z"/><path class="cls-11" d="M357.53,273.73s3.64-1,4.75-5.85A11.44,11.44,0,0,0,357.53,273.73Z"/><path class="cls-11" d="M333.67,289.17A63.08,63.08,0,0,0,346.62,283a57.58,57.58,0,0,0,5.82-4.23l.69-.58.68-.59.67-.6.65-.62a33.85,33.85,0,0,0,2.47-2.61c.24-.29.13-.39-.12-.1-.8.88-1.66,1.71-2.54,2.51l-.66.6-.68.58-.68.58-.7.56a66.09,66.09,0,0,1-5.83,4.14A75.41,75.41,0,0,1,333.62,289C333.24,289.17,333.31,289.3,333.67,289.17Z"/><path class="cls-11" d="M109.63,266.3s-11.43,2.69-19-1.18C90.6,265.12,101.66,262.59,109.63,266.3Z"/><path class="cls-11" d="M109.63,266.3s-3.12-9.2.88-16C110.51,250.27,113.07,258.55,109.63,266.3Z"/><path class="cls-11" d="M105.71,262.08S96.24,263.16,89,259.6C89,259.6,97.71,257.61,105.71,262.08Z"/><path class="cls-11" d="M105.71,262.08a22.6,22.6,0,0,1,1-16.07S108,255.13,105.71,262.08Z"/><path class="cls-11" d="M102,257.57s-9.41,1.25-15.51-2.91A26.15,26.15,0,0,1,102,257.57Z"/><path class="cls-11" d="M102,257.57s3.23-9.37,2.38-16.58C104.33,241,98.67,249.85,102,257.57Z"/><path class="cls-11" d="M98.55,253s-10.28-1-17-4.95C81.56,248.06,91,247.61,98.55,253Z"/><path class="cls-11" d="M98.55,253a25.45,25.45,0,0,1,2.16-16.58S100.92,247.38,98.55,253Z"/><path class="cls-11" d="M95.47,248.37s-8.58-.11-13.79-4.64C81.68,243.73,89.39,243.64,95.47,248.37Z"/><path class="cls-11" d="M95.47,248.37a38.34,38.34,0,0,0,3.34-15.5S94.68,240.52,95.47,248.37Z"/><path class="cls-11" d="M92.59,243.46s-10.34-.92-15.11-6.15C77.48,237.31,86.3,238.63,92.59,243.46Z"/><path class="cls-11" d="M92.59,243.46a45,45,0,0,0,4.65-12.86A19.62,19.62,0,0,0,92.59,243.46Z"/><path class="cls-11" d="M90.4,239.16s-7.59-.54-12.65-5.37A19.14,19.14,0,0,1,90.4,239.16Z"/><path class="cls-11" d="M90.4,239.16a64.43,64.43,0,0,0,6.14-13.64S90.13,233.09,90.4,239.16Z"/><path class="cls-11" d="M88.8,235.51s-8.53-2-11-6.69A25.72,25.72,0,0,1,88.8,235.51Z"/><path class="cls-11" d="M88.8,235.51a30.24,30.24,0,0,0,5.34-11.14A15.41,15.41,0,0,0,88.8,235.51Z"/><path class="cls-11" d="M88.06,233.57s-5-3.71-3.71-11.86C84.35,221.71,88.08,226,88.06,233.57Z"/><path class="cls-11" d="M115.24,271.8a102.76,102.76,0,0,1-16.09-17.37,95.28,95.28,0,0,1-6.36-10l-.7-1.31c-.24-.43-.45-.88-.67-1.32l-.66-1.33-.63-1.35c-.81-1.8-1.57-3.63-2.2-5.51-.18-.58,0-.67.25-.08.68,1.84,1.5,3.64,2.36,5.41l.65,1.32.69,1.31c.23.43.45.87.69,1.3l.73,1.28a110.79,110.79,0,0,0,6.41,9.9,123.69,123.69,0,0,0,15.71,17.58C115.9,272.06,115.71,272.22,115.24,271.8Z"/><path class="cls-6" d="M106.78,223.83a19.82,19.82,0,0,1,1.45,4,28,28,0,0,1,.69,4.19c.08.89-.12,2.18.39,3-.69.56-1.55,1.05-2.31,1.58,1.17,0,1.66-.24,1.83,1,.3,2.39.23,4.81.48,7.2a16.51,16.51,0,0,0,.49,3.36c.29.84,1.06,1.81.93,2.75-.16,1.14-3.51,1.7-4.34,2.19,1,.32,3,.68,4,.16a5.71,5.71,0,0,1-1.74,1.6c.88-.13,1.76-.42,2.57-.53.23.74.72,1.44,1,2.19.36,1,.78,1.85,1.17,2.8.52,1.33,2.24,4.08,1.71,5.47s-3.6,3.67-5,3.73a7.58,7.58,0,0,0,5.92-1.8,20.88,20.88,0,0,1,2.21,8.4,5.91,5.91,0,0,1-3.72,6.14,5.45,5.45,0,0,1-4-.24c-.27-.47-.49-.95-.74-1.43a57.44,57.44,0,0,1-3.1-7.31,72.4,72.4,0,0,1-3.3-15.4c-1.14-10.51,1.32-20.65,2.13-31a.06.06,0,0,0-.12,0c-.58,5.71-1.8,11.32-2.58,17a63.54,63.54,0,0,0-.24,15.16,73.29,73.29,0,0,0,3.5,15.47,63.4,63.4,0,0,0,3.67,9.53,6.72,6.72,0,0,1-5.48,3.6c-2.91.23-5.12-1.63-6.49-4-.64-1.09-1.17-2.36-1.7-3.46s-.47-2.39-1.22-3.22c.78-.65,1.77-1,2.6-1.61a8.84,8.84,0,0,0-3-.14c-.09-.9-.83-2.72-.61-3.55s2-1.44,2.77-1.77a7.08,7.08,0,0,0-2.62-.37c-1.28-2-1.42-5.26-1.6-7.54-.13-1.73,0-3.54-.16-5.25,1.25-.09,2.52-.35,3.82-.4a16.54,16.54,0,0,0,4.8-.54,32.21,32.21,0,0,0-3.36-.55c-1.72-.2-3.26-1-5-1.2a20.82,20.82,0,0,0,0-2.24c0-.77.49-7.18,1.14-7.08,1.43.2,3,0,4.47.25-.8-.51-1.79-1.24-2.59-1.7.81.1,2.06-.12,2.74-.09-.68-.48-2.52-1.85-3.29-1.5A10.59,10.59,0,0,0,96.59,237a15.12,15.12,0,0,1,1.63-3.33c.46-.75,1.09-1.44,1.46-2.17.64.34,2-.22,2.68-.22a7.29,7.29,0,0,0-1.8-1.59c1.62-3,3.86-5.34,4.06-9C104.59,221.16,106.49,223.24,106.78,223.83Z"/><path class="cls-7" d="M105.51,225.83c-.81,10.4-3.27,20.54-2.13,31a72.4,72.4,0,0,0,3.3,15.4,57.44,57.44,0,0,0,3.1,7.31c.25.48.47,1,.74,1.43a2.83,2.83,0,0,1-.4-.17,4.18,4.18,0,0,1-.38,2.15,63.4,63.4,0,0,1-3.67-9.53,73.29,73.29,0,0,1-3.5-15.47,63.54,63.54,0,0,1,.24-15.16c.78-5.7,2-11.31,2.58-17A.06.06,0,0,1,105.51,225.83Z"/><path class="cls-8" d="M126.42,305.64c.61.68-1.52,2.23-2.16,1.59C123,306,110.6,284.58,109.74,283a4.18,4.18,0,0,0,.38-2.15,2.83,2.83,0,0,0,.4.17C111.46,282.93,125,304,126.42,305.64Z"/><path class="cls-6" d="M66.42,294.59a15.35,15.35,0,0,0,2.6,2,20.07,20.07,0,0,0,2.9,1.44c.62.25,1.61.4,2.08.94.56-.37,1.11-.89,1.66-1.32-.29.84-.54,1.15.33,1.55,1.67.76,3.45,1.24,5.14,2a11.9,11.9,0,0,1,2.34,1.1c.54.39,1.08,1.17,1.79,1.29s2-2.18,2.56-2.68a4.92,4.92,0,0,1-.77,2.94,4.25,4.25,0,0,0,1.55-.91c-.29.61-.69,1.19-.95,1.76.48.32.88.84,1.37,1.21s1.17,1,1.78,1.48c.85.67,2.46,2.54,3.6,2.47A6.47,6.47,0,0,0,98.23,307a5.75,5.75,0,0,1-2.63,3.91,15.83,15.83,0,0,0,5.62,3.49,4.49,4.49,0,0,0,5.3-1.35,4.09,4.09,0,0,0,.71-2.95c-.28-.3-.58-.56-.87-.85a44.13,44.13,0,0,0-4.63-3.89,55.21,55.21,0,0,0-10.49-5.83c-7.39-3.18-15.33-3.64-23.08-5.37-.06,0,0-.1,0-.08,4.29.84,8.64,1.21,13,1.91a48.21,48.21,0,0,1,11.09,3.2,56.18,56.18,0,0,1,10.49,6,48.43,48.43,0,0,1,6.12,4.79,5.12,5.12,0,0,0,3.84-3.18c.82-2.07,0-4.09-1.49-5.63-.65-.71-1.46-1.37-2.14-2s-1.64-.87-2.07-1.61c-.65.43-1.15,1.06-1.76,1.54a6.87,6.87,0,0,1,.58-2.24c-.64-.27-1.8-1.21-2.45-1.24s-1.5,1.16-1.91,1.63a5.67,5.67,0,0,1,.32-2c-1.17-1.37-3.52-2.2-5.14-2.84-1.23-.48-2.58-.76-3.78-1.28-.35.89-.82,1.75-1.15,2.69a12.17,12.17,0,0,1-1.46,3.37c.08-.86.19-1.72.35-2.56.24-1.3,0-2.61.23-3.88a14.09,14.09,0,0,1-1.63-.52c-.56-.15-5.33-1.24-5.41-.74-.17,1.08-.65,2.17-.81,3.31-.19-.7-.5-1.58-.66-2.26a20.55,20.55,0,0,1-.68,2c-.2-.6-.78-2.25-.36-2.73a8.11,8.11,0,0,1-3,.39,11.12,11.12,0,0,0-2.79.44c-.65.17-1.29.48-1.9.58.1.54-.6,1.38-.76,1.9a5.36,5.36,0,0,1-.76-1.66c-2.53.51-4.75,1.62-7.42,1C65,292.41,66.06,294.25,66.42,294.59Z"/><path class="cls-8" d="M68.16,294.11c7.75,1.73,15.69,2.19,23.08,5.37a55.21,55.21,0,0,1,10.49,5.83,44.13,44.13,0,0,1,4.63,3.89c.29.29.59.55.87.85a1.84,1.84,0,0,0,0-.33,3.06,3.06,0,0,0,1.65.2,48.43,48.43,0,0,0-6.12-4.79,56.18,56.18,0,0,0-10.49-6,48.21,48.21,0,0,0-11.09-3.2c-4.33-.7-8.68-1.07-13-1.91C68.12,294,68.1,294.09,68.16,294.11Z"/><path class="cls-7" d="M121.42,327.05c.36.6,2.11-.72,1.79-1.33-.62-1.19-13.4-14.81-14.36-15.8a3.06,3.06,0,0,1-1.65-.2,1.84,1.84,0,0,1,0,.33C108.42,311.16,120.57,325.68,121.42,327.05Z"/><path class="cls-9" d="M87.13,257.18a13.55,13.55,0,0,1,1.93,2.15,17.56,17.56,0,0,1,1.5,2.46c.28.53.48,1.39,1,1.77-.28.53-.7,1.05-1,1.58.72-.33,1-.58,1.4.16.8,1.43,1.37,3,2.14,4.4a10.14,10.14,0,0,0,1.16,2c.39.45,1.12.86,1.28,1.48s-1.77,2-2.17,2.49a4.37,4.37,0,0,0,2.54-.92,3.77,3.77,0,0,1-.68,1.45c.52-.31,1-.71,1.48-1,.33.41.81.72,1.19,1.12s1,1,1.45,1.46c.66.7,2.44,2,2.46,3a5.72,5.72,0,0,1-2.19,3.61,5.06,5.06,0,0,0,3.25-2.64,14.24,14.24,0,0,1,3.53,4.71,4,4,0,0,1-.77,4.8,3.7,3.7,0,0,1-2.56.87c-.29-.23-.55-.47-.83-.71a38.94,38.94,0,0,1-3.8-3.8,48.5,48.5,0,0,1-6-8.83c-3.39-6.3-4.43-13.29-6.57-20,0-.05-.09,0-.07,0,1.08,3.74,1.75,7.57,2.71,11.35a43.48,43.48,0,0,0,3.7,9.57,49.82,49.82,0,0,0,6.13,8.82,44.93,44.93,0,0,0,4.73,5.05,4.52,4.52,0,0,1-2.52,3.65,4.7,4.7,0,0,1-5.1-.88c-.68-.52-1.33-1.18-1.94-1.74s-.91-1.38-1.59-1.7c.32-.62.85-1.1,1.22-1.68a6,6,0,0,0-1.94.69c-.29-.55-1.22-1.5-1.29-2.08s.91-1.41,1.29-1.81a5,5,0,0,0-1.74.43c-1.31-.92-2.23-2.94-2.92-4.32-.52-1.05-.88-2.23-1.44-3.26.76-.37,1.49-.86,2.3-1.22a11.09,11.09,0,0,0,2.87-1.56,21.35,21.35,0,0,0-2.24.51c-1.13.31-2.31.2-3.42.51a11.76,11.76,0,0,0-.59-1.4c-.17-.49-1.51-4.63-1.08-4.74.94-.24,1.88-.75,2.87-1-.63-.12-1.44-.33-2.06-.41.54-.15,1.26-.6,1.69-.76-.54-.13-2-.52-2.44-.11a7.21,7.21,0,0,0,.11-2.7,10.11,10.11,0,0,1,.17-2.51c.1-.59.32-1.18.36-1.73.49.05,1.18-.64,1.63-.82a4.57,4.57,0,0,0-1.53-.54c.25-2.28,1.06-4.34.27-6.66C85.08,256.06,86.8,256.89,87.13,257.18Z"/><path class="cls-10" d="M86.84,258.76c2.14,6.74,3.18,13.73,6.57,20a48.5,48.5,0,0,0,6,8.83,38.94,38.94,0,0,0,3.8,3.8c.28.24.54.48.83.71a1.51,1.51,0,0,1-.3,0,2.69,2.69,0,0,1,.31,1.45,44.93,44.93,0,0,1-4.73-5.05,49.82,49.82,0,0,1-6.13-8.82,43.48,43.48,0,0,1-3.7-9.57c-1-3.78-1.63-7.61-2.71-11.35C86.75,258.73,86.82,258.71,86.84,258.76Z"/><path class="cls-10" d="M120.21,303.36c.55.27-.48,1.93-1,1.69-1.1-.45-14.18-10.71-15.13-11.48a2.69,2.69,0,0,0-.31-1.45,1.51,1.51,0,0,0,.3,0C105.1,293.09,118.92,302.71,120.21,303.36Z"/><path class="cls-10" d="M382.67,315c5.3-3.24,7.68-8.14,6.51-10.58-1.26-2.65-7.47-4.08-14.1-.54.22-1,3.46-16.29,0-17.63-2.78-1.09-8.5,7.32-9.77,9.22q1.92-16.56-.81-17.36c-1.33-.4-3.5,2.05-6.51,7.32-1.09-3.8-2.18-5.7-3.25-5.69q-3.18,0-6.24,22c-1-5.35-3.15-14.89-6-14.92-3.52,0-6.28,14.78-7,19.26q-6.87-7.25-8.41-6.24-2,1.26,4.61,15.73Z"/><circle class="cls-11" cx="399.51" cy="248.98" r="11.69" transform="translate(-59.04 355.42) rotate(-45)"/><circle class="cls-12" cx="399.51" cy="248.98" r="9.48"/><path class="cls-13" d="M403.12,251.13a2.27,2.27,0,0,1-.81,1.79,4.23,4.23,0,0,1-2.28.89v1.86h-1v-1.78a11,11,0,0,1-1.74-.14,5.84,5.84,0,0,1-1.37-.39v-1.25a8.68,8.68,0,0,0,3.11.67v-3.51a5.58,5.58,0,0,1-2.3-1.21,2.46,2.46,0,0,1-.66-1.78,2.12,2.12,0,0,1,.81-1.71,4,4,0,0,1,2.15-.82V242.3h1v1.43a8.16,8.16,0,0,1,2.84.6l-.42,1a8.26,8.26,0,0,0-2.42-.56v3.47a9.51,9.51,0,0,1,1.88.78,2.76,2.76,0,0,1,.92.87A2.37,2.37,0,0,1,403.12,251.13Zm-5.73-4.86a1.32,1.32,0,0,0,.36,1,3.43,3.43,0,0,0,1.25.7v-3.1a2.38,2.38,0,0,0-1.2.5A1.22,1.22,0,0,0,397.39,246.27Zm4.37,5a1.29,1.29,0,0,0-.35-.93,3.89,3.89,0,0,0-1.38-.71v3.11C401.18,252.54,401.76,252.05,401.76,251.23Z"/><g id="_Group_" data-name="&lt;Group&gt;"><path class="cls-12" d="M411.22,181.54v32.31h-56.4V181.54Zm-2.75,30.18V183.67h-50.9v28.05Z"/><polygon class="cls-12" points="408.47 184.32 408.47 211.72 357.57 211.72 357.57 211.07 358.16 211.07 360.7 211.07 405.34 211.07 407.89 211.07 407.89 208.71 407.89 186.69 407.89 184.32 408.47 184.32"/><polygon class="cls-12" points="408.47 183.67 408.47 184.32 407.89 184.32 405.34 184.32 360.7 184.32 358.16 184.32 358.16 186.69 358.16 208.71 358.16 211.07 357.57 211.07 357.57 183.67 408.47 183.67"/><path class="cls-12" d="M407.89,208.7v2.37h-2.55A2.46,2.46,0,0,1,407.89,208.7Z"/><path class="cls-11" d="M407.89,186.69v22a2.46,2.46,0,0,0-2.55,2.37H360.7a2.46,2.46,0,0,0-2.54-2.37v-22a2.46,2.46,0,0,0,2.54-2.36h44.64A2.46,2.46,0,0,0,407.89,186.69Zm-6.45,11c0-1.61-.86-2.92-1.93-2.92s-1.94,1.31-1.94,2.92.86,2.92,1.94,2.92S401.44,199.31,401.44,197.7Zm-6.21,0c0-4.9-5.46-8.87-12.21-8.87s-12.21,4-12.21,8.87,5.47,8.87,12.21,8.87S395.23,202.6,395.23,197.7Zm-26.75,0c0-1.61-.87-2.92-1.94-2.92s-1.94,1.31-1.94,2.92.87,2.92,1.94,2.92S368.48,199.31,368.48,197.7Z"/><path class="cls-12" d="M407.89,184.33v2.36a2.46,2.46,0,0,1-2.55-2.36Z"/><path class="cls-12" d="M399.51,194.78c1.07,0,1.93,1.31,1.93,2.92s-.86,2.92-1.93,2.92-1.94-1.31-1.94-2.92S398.43,194.78,399.51,194.78Z"/><path class="cls-12" d="M383,188.83c6.75,0,12.21,4,12.21,8.87s-5.46,8.87-12.21,8.87-12.21-4-12.21-8.87S376.28,188.83,383,188.83Z"/><path class="cls-12" d="M366.54,194.78c1.07,0,1.94,1.31,1.94,2.92s-.87,2.92-1.94,2.92-1.94-1.31-1.94-2.92S365.47,194.78,366.54,194.78Z"/><path class="cls-12" d="M358.16,184.33h2.54a2.46,2.46,0,0,1-2.54,2.36Z"/><path class="cls-12" d="M360.7,211.07h-2.54V208.7A2.46,2.46,0,0,1,360.7,211.07Z"/></g><path class="cls-13" d="M384.74,193.29a2.64,2.64,0,0,1,1.79,2.76v.2H385a2,2,0,0,0-.63-1.63l-.65,2.51c1.9.28,2.89,1,2.89,2.42v.11c0,1.67-1.29,2.69-3.54,2.69-.23,0-.46,0-.68,0l-.4,1.57H380.8l.47-1.83a2.72,2.72,0,0,1-1.86-2.71v-.08h1.5a1.72,1.72,0,0,0,.68,1.48l.68-2.65c-1.95-.31-2.76-1.06-2.76-2.36v-.11c0-1.62,1.4-2.6,3.5-2.6.2,0,.39,0,.57,0l.4-1.55h1.22ZM382.57,197l.7-2.73H383c-1.08,0-1.92.48-1.92,1.32v.07C381.05,196.32,381.43,196.76,382.57,197Zm2.51,2.76v-.07c0-.78-.5-1.19-1.62-1.4l-.74,2.89h.41C384.29,201.16,385.08,200.64,385.08,199.73Z"/><path class="cls-10" d="M128.68,315c5.3-3.24,7.67-8.14,6.51-10.58-1.26-2.65-7.48-4.08-14.11-.54.22-1,3.47-16.29,0-17.63-2.77-1.09-8.5,7.32-9.76,9.22q1.91-16.56-.82-17.36c-1.33-.4-3.5,2.05-6.51,7.32q-1.63-5.7-3.25-5.69-3.17,0-6.24,22c-1-5.35-3.15-14.89-6-14.92-3.52,0-6.27,14.78-7,19.26q-6.87-7.25-8.41-6.24-1.95,1.26,4.61,15.73Z"/><circle class="cls-11" cx="74.9" cy="154.26" r="11.69" transform="translate(-92.48 191.52) rotate(-76.65)"/><circle class="cls-12" cx="74.9" cy="154.26" r="9.48"/><path class="cls-13" d="M78.52,156.4a2.28,2.28,0,0,1-.81,1.8,4.23,4.23,0,0,1-2.28.89v1.85h-1v-1.78a11,11,0,0,1-1.74-.14,5,5,0,0,1-1.37-.39v-1.24a8.64,8.64,0,0,0,1.53.48,7.21,7.21,0,0,0,1.58.19v-3.52a5.51,5.51,0,0,1-2.3-1.21,2.44,2.44,0,0,1-.66-1.77,2.14,2.14,0,0,1,.81-1.72A4,4,0,0,1,74.4,149v-1.45h1V149a8.19,8.19,0,0,1,2.84.59l-.42,1.05a8,8,0,0,0-2.42-.56v3.47a8.65,8.65,0,0,1,1.88.78,2.67,2.67,0,0,1,.92.87A2.33,2.33,0,0,1,78.52,156.4Zm-5.73-4.86a1.35,1.35,0,0,0,.36,1,3.59,3.59,0,0,0,1.25.69v-3.09a2.3,2.3,0,0,0-1.2.5A1.22,1.22,0,0,0,72.79,151.54Zm4.37,5a1.26,1.26,0,0,0-.35-.93,3.73,3.73,0,0,0-1.38-.71V158C76.58,157.82,77.16,157.33,77.16,156.51Z"/><rect class="cls-12" x="106.59" y="126.22" width="239.24" height="188"/><rect class="cls-14" x="103.86" y="302.61" width="244.69" height="11.62"/><rect class="cls-12" x="101.22" y="114.28" width="249.97" height="11.95"/><rect class="cls-15" x="101.22" y="122.34" width="249.97" height="3.89"/><path class="cls-12" d="M102.38,101.4H350a8.41,8.41,0,0,1,8.41,8.41v4.48a0,0,0,0,1,0,0H94a0,0,0,0,1,0,0v-4.48A8.41,8.41,0,0,1,102.38,101.4Z"/><rect class="cls-15" x="93.97" y="110.39" width="264.47" height="3.89"/><polygon class="cls-16" points="350.8 134.92 350.8 164.95 97.06 164.95 97.06 139.62 106.91 129.43 345.5 129.43 350.8 134.92"/><path class="cls-15" d="M345.83,165v13.58a14.76,14.76,0,0,1-.14-2.11,17,17,0,0,1-17,17h-.15a17,17,0,0,1-17-17,17,17,0,0,1-17,17h-.15a17,17,0,0,1-17-17,17,17,0,0,1-17,17h-.14a17,17,0,0,1-17-17,17,17,0,0,1-17,17h-.15a17,17,0,0,1-17-17,17,17,0,0,1-17,17H192a17,17,0,0,1-17-17,17,17,0,0,1-17,17h-.15a17,17,0,0,1-17-17,17,17,0,0,1-17,17h-.14a17,17,0,0,1-17-17,16.9,16.9,0,0,1-.12,2V165Z"/><g id="_Group_2" data-name="&lt;Group&gt;"><polygon class="cls-14" points="159.93 126.16 140.86 161.68 106.71 161.68 133.42 126.16 159.93 126.16"/><polygon class="cls-14" points="212.95 126.16 209.13 161.68 174.99 161.68 186.44 126.16 212.95 126.16"/><polygon class="cls-14" points="265.98 126.16 277.41 161.68 243.28 161.68 239.47 126.16 265.98 126.16"/><polygon class="cls-14" points="318.99 126.16 345.7 161.68 311.56 161.68 292.48 126.16 318.99 126.16"/><polygon class="cls-6" points="133.42 126.16 106.71 161.68 72.57 161.68 106.9 126.16 133.42 126.16"/><polygon class="cls-6" points="186.44 126.16 174.99 161.68 140.86 161.68 159.93 126.16 186.44 126.16"/><polygon class="cls-6" points="239.47 126.16 243.28 161.68 209.13 161.68 212.95 126.16 239.47 126.16"/><polygon class="cls-6" points="292.48 126.16 311.56 161.68 277.41 161.68 265.98 126.16 292.48 126.16"/><polygon class="cls-6" points="345.5 126.16 379.85 161.68 345.7 161.68 318.99 126.16 345.5 126.16"/></g><path class="cls-9" d="M362.84,190.15h-.15a17,17,0,0,1-17-17V161.69h34.14v11.47A17,17,0,0,1,362.84,190.15Z"/><path class="cls-17" d="M328.7,190.15h-.15a17,17,0,0,1-17-17V161.69h34.14v11.47A17,17,0,0,1,328.7,190.15Z"/><path class="cls-9" d="M294.56,190.15h-.15a17,17,0,0,1-17-17V161.69h34.14v11.47A17,17,0,0,1,294.56,190.15Z"/><path class="cls-17" d="M260.42,190.15h-.15a17,17,0,0,1-17-17V161.69h34.14v11.47A17,17,0,0,1,260.42,190.15Z"/><path class="cls-9" d="M226.28,190.15h-.15a17,17,0,0,1-17-17V161.69h34.14v11.47A17,17,0,0,1,226.28,190.15Z"/><path class="cls-17" d="M192.13,190.15H192a17,17,0,0,1-17-17V161.69h34.14v11.47A17,17,0,0,1,192.13,190.15Z"/><path class="cls-9" d="M158,190.15h-.15a17,17,0,0,1-17-17V161.69H175v11.47A17,17,0,0,1,158,190.15Z"/><path class="cls-17" d="M123.85,190.15h-.15a17,17,0,0,1-17-17V161.69h34.14v11.47A17,17,0,0,1,123.85,190.15Z"/><path class="cls-9" d="M89.71,190.15h-.15a17,17,0,0,1-17-17V161.69h34.14v11.47A17,17,0,0,1,89.71,190.15Z"/><rect class="cls-10" x="129.82" y="196.18" width="60.14" height="118.05"/><rect class="cls-7" x="133.84" y="200.87" width="52.09" height="113.35"/><rect class="cls-7" x="133.84" y="201.9" width="51.06" height="112.32"/><rect class="cls-6" x="134.87" y="201.9" width="50.03" height="112.32"/><path class="cls-18" d="M147.25,260a4,4,0,1,1-4-4A4,4,0,0,1,147.25,260Z"/><path class="cls-19" d="M148.28,259a4,4,0,1,1-4-4A4,4,0,0,1,148.28,259Z"/><circle class="cls-20" cx="144.25" cy="258.97" r="3.57"/><circle class="cls-19" cx="144.33" cy="258.12" r="2.5"/><polygon class="cls-15" points="327.39 282.81 327.39 197.7 208.17 197.7 208.17 282.81 204.82 282.81 204.82 290.6 331.15 290.6 331.15 282.81 327.39 282.81"/><rect class="cls-10" x="210.23" y="195.64" width="119.21" height="89.41"/><rect class="cls-21" x="213.59" y="198.73" width="112.5" height="83.8"/><rect class="cls-22" x="213.59" y="199.76" width="111.47" height="82.77"/><rect class="cls-23" x="213.59" y="199.76" width="111.47" height="82.77"/><rect class="cls-10" x="206.88" y="280.75" width="126.33" height="7.79"/><rect class="cls-22" x="138.12" y="205.32" width="43.53" height="46.88"/><rect class="cls-24" x="138.12" y="205.32" width="43.53" height="46.88"/><rect class="cls-6" x="158.38" y="204.81" width="3.01" height="47.9"/><rect class="cls-6" x="135.94" y="227.25" width="47.9" height="3.01"/><rect class="cls-25" x="138.12" y="265.85" width="43.53" height="44.94"/><circle class="cls-11" cx="54" cy="183.87" r="16.26"/><circle class="cls-12" cx="54" cy="183.87" r="13.18"/><path class="cls-13" d="M59,186.85a3.16,3.16,0,0,1-1.14,2.5,5.85,5.85,0,0,1-3.16,1.24v2.58H53.29v-2.48a14.6,14.6,0,0,1-2.41-.2A7.46,7.46,0,0,1,49,190v-1.73a10.69,10.69,0,0,0,2.13.67,10,10,0,0,0,2.19.26v-4.89a7.71,7.71,0,0,1-3.2-1.68,3.42,3.42,0,0,1-.91-2.47,3,3,0,0,1,1.13-2.39,5.45,5.45,0,0,1,3-1.13v-2h1.44v2a11.1,11.1,0,0,1,3.94.82l-.58,1.46a11.09,11.09,0,0,0-3.36-.78v4.82A12.78,12.78,0,0,1,57.34,184a3.66,3.66,0,0,1,1.28,1.21A3.22,3.22,0,0,1,59,186.85Zm-8-6.76a1.84,1.84,0,0,0,.5,1.36,4.72,4.72,0,0,0,1.73,1v-4.3a3.18,3.18,0,0,0-1.67.7A1.67,1.67,0,0,0,51.06,180.09ZM57.14,187a1.76,1.76,0,0,0-.5-1.3,5.21,5.21,0,0,0-1.91-1V189C56.33,188.82,57.14,188.14,57.14,187Z"/><rect class="cls-13" y="314.23" width="440.67" height="28.01"/><rect class="cls-6" y="314.23" width="406.57" height="9.02"/><path class="cls-26" d="M246.85,231.28S264.33,205,268,205c4.12,0,23.22,19.9,23.22,19.9"/><rect class="cls-6" x="245.7" y="226.95" width="50.95" height="21.56" rx="2.2" ry="2.2" transform="translate(-33.7 45.11) rotate(-8.95)"/><text class="cls-27" transform="translate(251.95 245.35) rotate(-8.95)">OPEN</text><path class="cls-6" d="M269.79,206.8a1.72,1.72,0,1,1-1.72-1.71A1.72,1.72,0,0,1,269.79,206.8Z"/><path class="cls-10" d="M269.69,206.8a1.63,1.63,0,1,1-1.62-1.62A1.62,1.62,0,0,1,269.69,206.8Z"/><path class="cls-6" d="M269.19,206.3a1.12,1.12,0,1,1-1.12-1.12A1.12,1.12,0,0,1,269.19,206.3Z"/><polygon class="cls-10" points="12.17 314.14 9.47 314.03 27.56 252.2 30.03 252.92 12.17 314.14"/><polygon class="cls-10" points="61.91 314.14 59.23 314.11 77.3 252.2 79.77 252.92 61.91 314.14"/><path class="cls-6" d="M88,314.39H85.5L82.07,287.8H33.79l3.43,26.59H34.79L23.59,227.9a.83.83,0,0,1,.82-.94H75.9a.82.82,0,0,1,.82.73Z"/><path class="cls-28" d="M81.63,285.34h-48l-7.1-54.85-.12-1v0h48Z"/><polygon class="cls-12" points="80.5 285.34 33.6 285.34 26.5 230.49 73.39 230.49 80.5 285.34"/><g class="cls-29"><path class="cls-12" d="M44.59,246.88a5.77,5.77,0,0,1,6,5.29c.49,3.48-1.48,5.29-4.45,5.29a5.78,5.78,0,0,1-6-5.29C39.62,248.69,41.62,246.88,44.59,246.88Zm-.78,5.29c.21,1.47.87,2.13,1.81,2.13s1.44-.66,1.23-2.13S46,250,45,250,43.6,250.67,43.81,252.17Zm11.7-4.95h5.17l-8.92,22H46.59ZM61.2,259a5.75,5.75,0,0,1,6,5.29c.5,3.48-1.47,5.3-4.45,5.3a5.78,5.78,0,0,1-6-5.3C56.25,260.82,58.22,259,61.2,259Zm-.78,5.29c.21,1.48.86,2.13,1.8,2.13s1.44-.65,1.24-2.13-.91-2.16-1.85-2.16S60.21,262.85,60.42,264.32Z"/></g><path class="cls-13" d="M46.65,245.85a5.76,5.76,0,0,1,6,5.29c.5,3.48-1.47,5.29-4.44,5.29a5.8,5.8,0,0,1-6-5.29C41.68,247.67,43.68,245.85,46.65,245.85Zm-.78,5.29c.21,1.47.87,2.13,1.81,2.13s1.44-.66,1.23-2.13S48,249,47.07,249,45.66,249.64,45.87,251.14Zm11.7-4.95h5.17l-8.92,22.05H48.65ZM63.26,258a5.75,5.75,0,0,1,5.95,5.29c.49,3.48-1.47,5.3-4.45,5.3a5.78,5.78,0,0,1-6-5.3C58.31,259.79,60.28,258,63.26,258Zm-.78,5.29c.21,1.48.86,2.13,1.8,2.13s1.44-.65,1.23-2.13-.9-2.16-1.84-2.16S62.27,261.82,62.48,263.29Z"/><circle class="cls-5" cx="325.55" cy="85.02" r="8.99" transform="translate(42.86 267.49) rotate(-47.48)"/><circle class="cls-5" cx="128.21" cy="85.29" r="8.99" transform="translate(-22.81 55.21) rotate(-22.37)"/><path class="cls-5" d="M136.13,52.26a4,4,0,1,1-4-4A4,4,0,0,1,136.13,52.26Z"/><circle class="cls-5" cx="23.74" cy="139.24" r="2"/><path class="cls-5" d="M248.06,43.53a2,2,0,1,1-2-2A2,2,0,0,1,248.06,43.53Z"/><path class="cls-5" d="M201.13,1.94A1.94,1.94,0,1,1,199.19,0,1.94,1.94,0,0,1,201.13,1.94Z"/><path class="cls-5" d="M429.18,168.81a2,2,0,1,1-2-2A2,2,0,0,1,429.18,168.81Z"/><path class="cls-5" d="M416.29,287a2,2,0,1,1-2-2A2,2,0,0,1,416.29,287Z"/><path class="cls-5" d="M341.65,58.42a2,2,0,1,1-2-2A2,2,0,0,1,341.65,58.42Z"/><path class="cls-5" d="M30.57,219a2,2,0,1,1-2-2A2,2,0,0,1,30.57,219Z"/><circle class="cls-5" cx="71.69" cy="108.38" r="4.03"/><circle class="cls-5" cx="13.15" cy="271.62" r="4.03"/><path class="cls-5" d="M423.29,211.61a3.63,3.63,0,1,1-3.63-3.62A3.63,3.63,0,0,1,423.29,211.61Z"/><path class="cls-6" d="M393.32,78.31c0,18.72-18.88,41.58-18.88,41.58S355.55,97,355.55,78.31a18.89,18.89,0,1,1,37.77,0Z"/><circle class="cls-19" cx="374.44" cy="78.31" r="9.98" transform="translate(265.56 445.02) rotate(-85.28)"/><rect class="cls-12" x="257.36" y="94.01" width="4.33" height="7.38"/><polygon class="cls-30" points="261.69 94.01 257.36 94.01 257.36 101.4 261.69 101.4 261.69 94.01 261.69 94.01"/><rect class="cls-12" x="190.72" y="94.01" width="4.33" height="7.38"/><polygon class="cls-30" points="195.06 94.01 190.72 94.01 190.72 101.4 195.06 101.4 195.06 94.01 195.06 94.01"/><rect class="cls-12" x="177.23" y="55.09" width="97.96" height="38.94" rx="4.13" ry="4.13"/><g class="cls-31"><path class="cls-12" d="M271.06,58.09a1.13,1.13,0,0,1,1.13,1.12V89.9A1.14,1.14,0,0,1,271.06,91H181.35a1.13,1.13,0,0,1-1.12-1.13V59.21a1.12,1.12,0,0,1,1.12-1.12h89.71m0-3H181.35a4.12,4.12,0,0,0-4.12,4.12V89.9A4.13,4.13,0,0,0,181.35,94h89.71a4.13,4.13,0,0,0,4.13-4.13V59.21a4.12,4.12,0,0,0-4.13-4.12Z"/></g><rect class="cls-32" x="177.23" y="55.09" width="97.96" height="38.94" rx="4.13" ry="4.13"/><text class="cls-33" transform="translate(188.5 82.94)">S<tspan class="cls-34" x="11.83" y="0">T</tspan><tspan x="23.1" y="0">ORE</tspan></text><path class="cls-12" d="M316.67,80.6a4,4,0,1,0,4,4A4,4,0,0,0,316.67,80.6Zm-9.41-5.81,3.55,3.71a8.47,8.47,0,0,1,11.73,0l3.55-3.71a13.62,13.62,0,0,0-18.83,0Zm9.41-25.35a35.07,35.07,0,0,0-24.32,9.78l3.55,3.7a30,30,0,0,1,41.55,0l3.54-3.7A35,35,0,0,0,316.67,49.44ZM299.91,67.11l3.54,3.7a19.1,19.1,0,0,1,26.45,0l3.54-3.7a24.19,24.19,0,0,0-33.53,0Z"/><path class="cls-6" d="M63.27,105.26l-1,.64a2,2,0,0,1-2.72-.55l-6.44-9.7L51.08,92.5l3.48-2.3.75-.5.46.69,2.15,3.26,5.9,8.9A2,2,0,0,1,63.27,105.26Z"/><path class="cls-35" d="M95.26,71.12a5.09,5.09,0,0,1-.37,4.67,5,5,0,0,1-2.38,2l-.12,0a3.81,3.81,0,0,1-.57.19h0a2.84,2.84,0,0,1-.49.1l-.26,0a4.19,4.19,0,0,1-.5,0,3.32,3.32,0,0,1-.55,0h0a4,4,0,0,1-.59-.1l-.08,0a3.27,3.27,0,0,1-.53-.17,4,4,0,0,1-1.1-.57,5,5,0,0,1-1.84-2.24,5.13,5.13,0,0,1,5.64-7l.22,0h0a4.16,4.16,0,0,1,1.06.37,1.64,1.64,0,0,1,.35.18.92.92,0,0,1,.25.15.24.24,0,0,1,.1.06,4.39,4.39,0,0,1,.71.58l.21.22a.87.87,0,0,1,.17.21,1.5,1.5,0,0,1,.19.25.8.8,0,0,1,.18.27.67.67,0,0,1,.11.18A4,4,0,0,1,95.26,71.12Z"/><path class="cls-35" d="M95.26,71.12a5.09,5.09,0,0,1-.37,4.67,5,5,0,0,1-2.38,2l-.12,0a3.81,3.81,0,0,1-.57.19h0a2.84,2.84,0,0,1-.49.1l-.26,0a4.19,4.19,0,0,1-.5,0,3.32,3.32,0,0,1-.55,0h0a4,4,0,0,1-.59-.1l-.08,0a3.27,3.27,0,0,1-.53-.17,5,5,0,0,1-1.1-.57A5,5,0,0,0,90.52,77a5.1,5.1,0,0,0,3.12-4.19,5.09,5.09,0,0,0-.37-2.53,5,5,0,0,0-1.55-2v0a3.06,3.06,0,0,0-.29-.21l.22,0a4.16,4.16,0,0,1,1.06.37,1.64,1.64,0,0,1,.35.18.92.92,0,0,1,.25.15.24.24,0,0,1,.1.06,4.39,4.39,0,0,1,.71.58l.21.22a.87.87,0,0,1,.17.21,1.5,1.5,0,0,1,.19.25.8.8,0,0,1,.18.27.67.67,0,0,1,.11.18A4,4,0,0,1,95.26,71.12Z"/><polygon class="cls-6" points="59.69 92.91 57.92 93.65 53.16 95.65 52.36 95.98 48.6 87.05 47.47 84.35 54.79 81.27 58.66 90.45 59.69 92.91"/><path class="cls-12" d="M52.36,96l-.61.26a2.27,2.27,0,0,1-3-1.21l-3.13-7.47a2.25,2.25,0,0,1,1.2-3l.61-.26,1.13,2.7Z"/><polygon class="cls-12" points="96.75 87.93 96.75 87.93 59.69 92.91 58.66 90.45 54.79 81.27 84.29 58.28 88.53 68.37 91.84 76.23 92.51 77.83 96.75 87.93"/><path class="cls-15" d="M96.75,87.93h0l-37,5-1-2.46c5.41-.27,11.83-2.62,18.24-6,12.52-6.55,7.39-26.19,7.39-26.19l4.24,10.09,3.31,7.86.67,1.6Z"/><path class="cls-6" d="M100,88a1.14,1.14,0,0,1-.61,1.5l-.63.27a1.16,1.16,0,0,1-1.51-.62l-.53-1.24-4.23-10.1-.67-1.6-3.31-7.86L84.3,58.27,83.77,57a1.15,1.15,0,0,1,.61-1.51l.63-.27a1.17,1.17,0,0,1,1.51.62l1.1,2.61,4,9.6.07.19,1.92,4.56,1.25,3Z"/><path class="cls-12" d="M113.43,80.53l-9.49.31L114.7,82.4l19.17,2.8A2.7,2.7,0,0,0,137,82.69h0a2.7,2.7,0,0,0-2.78-2.84Zm20.39-25.25a2.7,2.7,0,0,0-3.74-1.35L103.43,67.81l-2.37,1.24,2.67-.87,28.44-9.29a2.7,2.7,0,0,0,1.65-3.61Zm-21.33-21L94.65,58.74l21.87-20.91a2.68,2.68,0,0,0-.09-4h0A2.69,2.69,0,0,0,112.49,34.3Z"/></g></g></g></svg>